<svg xmlns="http://www.w3.org/2000/svg" viewBox="0 0 128 128" role="img" aria-labelledby="t d">
  <title id="t">Markdown Clipper icon</title>
  <desc id="d">A bold white Markdown "M" with a small pair of scissors as its right accent, on a teal-to-blue card whose top-right corner is folded like a page.</desc>
  <defs>
    <linearGradient id="card" x1="0" y1="0" x2="1" y2="1">
      <stop offset="0" stop-color="#14b8a6"/>
      <stop offset="1" stop-color="#2563eb"/>
    </linearGradient>
  </defs>
  <path d="M34 8 L96 8 L120 32 L120 94 Q120 120 94 120 L34 120 Q8 120 8 94 L8 34 Q8 8 34 8 Z" fill="url(#card)"/>
  <path d="M96 8 L120 32 L96 32 Z" fill="#0b3b46" fill-opacity="0.45"/>
  <path d="M22 88 L22 46 L45 72 L68 46 L68 88" fill="none" stroke="#ffffff" stroke-width="10" stroke-linecap="round" stroke-linejoin="round"/>
  <path d="M88 52 L108 88" fill="none" stroke="#ffffff" stroke-width="5" stroke-linecap="round"/>
  <path d="M104 52 L84 88" fill="none" stroke="#ffffff" stroke-width="5" stroke-linecap="round"/>
  <circle cx="88" cy="50" r="6" fill="none" stroke="#ffffff" stroke-width="4"/>
  <circle cx="104" cy="50" r="6" fill="none" stroke="#ffffff" stroke-width="4"/>
  <circle cx="96" cy="70" r="2.8" fill="#1d4ed8"/>
</svg>
